<?xml version="1.0" standalone="no"?>
<!DOCTYPE svg PUBLIC "-//W3C//DTD SVG 20010904//EN"
 "http://www.w3.org/TR/2001/REC-SVG-20010904/DTD/svg10.dtd">
<svg version="1.0" xmlns="http://www.w3.org/2000/svg"
 width="500.000000pt" height="232.000000pt" viewBox="0 0 500.000000 232.000000"
 preserveAspectRatio="xMidYMid meet">

<g transform="translate(0.000000,232.000000) scale(0.100000,-0.100000)"
fill="#000000" stroke="none">
<path d="M320 1430 c1 -358 3 -657 6 -665 5 -13 279 -15 2214 -15 2004 0 2208
1 2214 16 3 9 6 308 6 665 l0 649 -2220 0 -2220 0 0 -650z m1345 -15 l0 -610
-642 -3 -643 -2 0 615 0 615 643 -2 642 -3 0 -610z m1003 343 c9 -9 12 -97 12
-334 0 -280 -2 -325 -16 -338 -19 -20 -29 -20 -48 0 -14 13 -16 58 -16 338 0
332 2 346 40 346 9 0 21 -5 28 -12z m1112 -7 c6 -12 10 -135 10 -329 0 -292
-1 -311 -19 -333 -16 -20 -23 -22 -38 -13 -17 10 -18 35 -21 330 -1 175 0 329
3 342 7 28 50 30 65 3z m-940 -31 c11 -7 16 -32 19 -94 l3 -85 60 -3 c72 -4
94 -23 64 -57 -15 -16 -31 -21 -73 -21 l-53 0 0 -137 c0 -113 3 -140 17 -155
20 -23 56 -23 93 -1 24 14 31 14 44 4 37 -31 -2 -84 -72 -97 -28 -5 -46 -2
-82 17 -77 41 -80 54 -80 351 0 220 2 259 16 272 18 18 23 19 44 6z m-452
-217 c28 -17 59 -48 77 -77 29 -48 30 -53 33 -191 3 -122 1 -143 -13 -155 -20
-16 -44 -5 -61 29 -10 18 -13 19 -23 7 -16 -19 -96 -46 -137 -46 -83 0 -170
55 -209 133 -64 130 1 282 143 328 51 16 140 3 190 -28z m1056 26 c61 -17 133
-91 152 -157 12 -41 14 -60 5 -78 -11 -24 -11 -24 -190 -24 -114 0 -182 -4
-186 -10 -9 -15 40 -77 75 -95 45 -23 105 -19 159 12 49 27 76 26 87 -2 13
-34 -71 -91 -150 -101 -55 -8 -129 15 -178 56 -51 42 -78 103 -78 175 0 160
146 268 304 224z m799 -22 c48 -28 92 -85 107 -138 6 -19 10 -89 10 -156 0
-111 -2 -123 -19 -133 -19 -10 -51 -4 -51 9 0 3 -4 12 -8 18 -6 10 -17 8 -46
-7 -112 -56 -246 -21 -313 83 -25 37 -28 52 -28 122 0 69 4 85 26 120 32 49
83 90 130 104 55 17 143 6 192 -22z"/>
<path d="M966 1748 c-14 -13 -73 -106 -132 -208 -59 -102 -136 -234 -172 -295
-77 -132 -85 -168 -47 -213 22 -27 34 -32 69 -32 52 0 64 9 111 83 l36 57 197
-2 196 -3 22 -35 c53 -83 73 -100 118 -100 33 0 48 6 69 28 45 47 38 80 -49
227 -42 72 -119 204 -171 295 -52 91 -107 177 -121 193 -33 35 -89 37 -126 5z
m110 -44 c34 -51 -29 -104 -86 -74 -17 9 -20 19 -18 48 5 61 71 77 104 26z
m-102 -130 c14 -26 26 -50 26 -55 0 -5 -23 -47 -50 -94 l-51 -85 -64 0 c-36 0
-65 3 -65 7 0 4 17 36 39 72 21 36 57 99 80 139 23 40 46 70 51 67 5 -3 20
-26 34 -51z m226 -75 c41 -72 76 -137 78 -145 3 -11 -11 -14 -61 -14 l-65 0
-51 90 -52 90 31 55 c17 30 35 55 38 55 4 -1 41 -60 82 -131z m-132 -88 c17
-32 32 -61 32 -65 0 -3 -34 -6 -75 -6 -41 0 -75 3 -75 6 0 16 68 124 78 124 4
0 22 -26 40 -59z m-258 -131 c24 -24 26 -57 3 -82 -36 -40 -111 -3 -98 50 13
50 60 67 95 32z m357 -40 l33 -55 -167 -3 c-91 -1 -168 0 -170 2 -3 3 9 30 27
61 l32 56 106 -3 106 -3 33 -55z m151 40 c26 -25 28 -57 5 -82 -21 -24 -58
-23 -83 2 -26 26 -25 48 2 77 27 28 48 29 76 3z m-588 -150 c11 -11 20 -27 20
-35 0 -19 -44 -65 -62 -65 -27 0 -58 31 -58 57 0 57 61 82 100 43z m679 -6
c24 -31 16 -62 -21 -83 -54 -31 -104 43 -61 91 23 26 58 22 82 -8z"/>
<path d="M2182 1440 c-47 -29 -72 -76 -72 -136 0 -117 119 -189 227 -138 106
51 113 212 11 274 -44 27 -122 27 -166 0z"/>
<path d="M3294 1441 c-37 -22 -78 -77 -69 -91 9 -14 295 -13 295 0 0 25 -32
70 -63 89 -44 27 -120 28 -163 2z"/>
<path d="M4042 1440 c-68 -42 -95 -122 -64 -192 65 -147 282 -120 300 37 11
99 -55 175 -152 175 -33 0 -62 -7 -84 -20z"/>
<path d="M1655 555 c-42 -41 -34 -79 30 -140 59 -57 63 -66 40 -85 -19 -16
-45 3 -45 32 0 31 -44 20 -48 -13 -8 -68 82 -105 133 -54 41 40 34 76 -31 146
-50 55 -55 63 -41 76 18 18 35 10 47 -23 11 -27 32 -31 49 -10 13 16 2 54 -24
79 -25 26 -81 22 -110 -8z"/>
<path d="M2084 570 c-12 -4 -32 -30 -44 -56 -19 -39 -21 -50 -11 -67 7 -11 13
-50 13 -87 0 -75 7 -94 34 -88 16 3 19 14 22 85 2 71 5 82 22 86 28 7 27 47
-1 47 -29 0 -21 34 9 38 17 3 22 9 20 25 -3 24 -30 31 -64 17z"/>
<path d="M2200 515 c0 -16 -6 -25 -15 -25 -9 0 -15 -9 -15 -25 0 -14 6 -25 14
-25 14 0 26 -49 26 -107 0 -37 34 -67 72 -61 33 4 35 36 4 48 -24 9 -26 15
-26 64 0 45 3 54 20 59 12 3 20 14 20 26 0 14 -6 21 -20 21 -15 0 -20 7 -20
25 0 21 -5 25 -30 25 -25 0 -30 -4 -30 -25z"/>
<path d="M2655 488 c-25 -14 -35 -28 -35 -51 0 -29 30 -33 50 -7 11 15 23 21
34 17 27 -11 18 -32 -19 -46 -46 -16 -65 -37 -65 -70 0 -43 26 -60 93 -58 l57
1 0 92 c0 88 -1 94 -26 113 -30 23 -59 26 -89 9z m62 -152 c-8 -20 -47 -21
-47 -1 0 18 32 37 44 25 5 -5 6 -16 3 -24z"/>
<path d="M2886 493 c-4 -4 -21 -7 -39 -8 l-32 0 0 -105 0 -105 25 0 c24 0 25
2 22 55 -4 69 10 108 42 116 25 6 40 29 30 45 -6 11 -38 12 -48 2z"/>
<path d="M3197 484 c-24 -13 -28 -20 -25 -52 2 -30 10 -41 46 -65 23 -16 42
-33 42 -38 0 -15 -32 -10 -45 8 -15 20 -45 11 -45 -15 0 -28 32 -52 71 -52 44
1 72 22 72 56 0 27 -13 41 -75 86 -19 13 -21 19 -10 30 11 11 16 9 30 -10 29
-38 71 -5 44 34 -9 14 -47 34 -64 34 -7 -1 -26 -8 -41 -16z"/>
<path d="M1854 469 c-15 -17 -19 -34 -17 -82 3 -78 8 -92 39 -105 36 -17 58
-15 88 9 24 19 26 27 26 90 0 56 -4 73 -20 89 -28 28 -91 27 -116 -1z m75 -33
c7 -8 11 -36 9 -63 -3 -40 -6 -48 -23 -48 -17 0 -20 8 -23 49 -5 71 10 95 37
62z"/>
<path d="M2330 481 c0 -10 24 -112 41 -173 16 -61 59 -49 74 20 7 35 25 34 25
-2 0 -12 6 -30 13 -40 18 -25 57 -13 57 17 0 12 9 55 20 96 25 93 25 91 -4 91
-21 0 -27 -7 -38 -47 l-14 -48 -13 48 c-11 39 -18 47 -37 47 -19 0 -25 -8 -34
-40 -11 -40 -30 -46 -30 -10 0 34 -12 50 -36 50 -13 0 -24 -4 -24 -9z"/>
<path d="M2996 471 c-21 -23 -31 -86 -22 -135 7 -37 44 -66 84 -66 27 0 72 38
72 61 0 23 -48 27 -56 4 -4 -8 -15 -15 -25 -15 -14 0 -19 7 -19 30 0 29 1 30
50 30 l50 0 0 35 c0 47 -29 75 -78 75 -26 0 -45 -7 -56 -19z m72 -39 c2 -7 -6
-12 -17 -12 -21 0 -27 11 -14 24 9 9 26 2 31 -12z"/>
</g>
</svg>
